<svg width="1148" height="159" viewBox="0 0 1148 159" fill="none" xmlns="http://www.w3.org/2000/svg">
<g id="Titre H1">
<path id="Shazam World Map" d="M42.272 117.752L39.3899 116.919L40.5283 120.193L42.272 117.752ZM45.6 106.232L46.8311 103.496L42.7179 105.399L45.6 106.232ZM51.744 108.792L50.647 111.584L50.735 111.617L51.744 108.792ZM59.296 111.096L58.5464 114.001L58.6549 114.027L59.296 111.096ZM76.832 110.712L77.7807 113.558L76.832 110.712ZM82.592 107L80.2494 105.126L80.2374 105.141L82.592 107ZM82.08 94.584L84.2524 92.515V92.515L82.08 94.584ZM75.04 89.464L73.5189 92.0498L73.6087 92.1006L75.04 89.464ZM65.056 84.216L63.6615 86.8722L63.7638 86.9234L65.056 84.216ZM55.456 78.84L53.8262 81.3587L53.9125 81.4125L55.456 78.84ZM47.776 72.824L45.6547 74.9453L45.6967 74.9865L47.776 72.824ZM42.656 65.784L39.9219 67.0188L39.9727 67.1256L42.656 65.784ZM44.32 45.176L41.8335 43.4976L41.8335 43.4976L44.32 45.176ZM54.304 36.984L53.0266 34.2695L53.0266 34.2695L54.304 36.984ZM82.848 35.832L83.7262 32.9634L83.7261 32.9634L82.848 35.832ZM93.728 40.056L96.5027 41.1967L95.0696 37.3727L93.728 40.056ZM88.992 51.576L87.5948 54.2308L91.7667 52.7167L88.992 51.576ZM83.744 49.144L82.5622 51.9014L82.6081 51.9206L83.744 49.144ZM77.728 47.352L77.0279 50.2692L77.1615 50.298L77.728 47.352ZM59.808 49.144L61.2715 51.7628L61.3291 51.7298L59.808 49.144ZM57.76 63.352L55.4381 65.2517L55.5354 65.3647L57.76 63.352ZM64.672 68.472L66.1033 65.8354H66.1033L64.672 68.472ZM75.04 73.976L73.6523 76.6358L73.6711 76.6455L75.04 73.976ZM84.384 79.224L82.8075 81.7764L82.8956 81.8287L84.384 79.224ZM92.192 84.856L90.1572 87.0604L92.192 84.856ZM97.44 91.896L94.7395 93.2027L94.7567 93.2376L97.44 91.896ZM95.52 113.144L93.0989 111.372L93.0708 111.412L95.52 113.144ZM84.768 121.592L85.9678 124.342L86.0094 124.323L84.768 121.592ZM61.088 124.024L60.5606 126.977L61.088 124.024ZM53.792 122.488L52.9678 125.373L53.0881 125.404L53.792 122.488ZM47.136 120.312L45.9822 123.081L46.0826 123.121L47.136 120.312ZM45.1541 118.585L48.4821 107.065L42.7179 105.399L39.3899 116.919L45.1541 118.585ZM44.3689 108.968C46.1326 109.761 48.2278 110.634 50.647 111.584L52.841 106C50.4815 105.073 48.4807 104.239 46.8311 103.496L44.3689 108.968ZM50.735 111.617C53.2157 112.503 55.82 113.297 58.5464 114.001L60.0456 108.191C57.4813 107.529 55.0509 106.787 52.753 105.967L50.735 111.617ZM58.6549 114.027C61.5771 114.666 64.4378 114.992 67.232 114.992V108.992C64.9063 108.992 62.4762 108.721 59.9371 108.165L58.6549 114.027ZM67.232 114.992C71.2697 114.992 74.8154 114.546 77.7807 113.558L75.8833 107.866C73.7286 108.584 70.8743 108.992 67.232 108.992V114.992ZM77.7807 113.558C80.728 112.576 83.2085 111.061 84.9467 108.859L80.2374 105.141C79.4155 106.182 78.056 107.142 75.8833 107.866L77.7807 113.558ZM84.9346 108.874C86.7497 106.605 87.64 103.929 87.64 100.984H81.64C81.64 102.647 81.165 103.981 80.2494 105.126L84.9346 108.874ZM87.64 100.984C87.64 97.739 86.4903 94.8649 84.2524 92.515L79.9076 96.653C81.083 97.8871 81.64 99.2797 81.64 100.984H87.64ZM84.2524 92.515C82.2661 90.4294 79.638 88.5465 76.4713 86.8274L73.6087 92.1006C76.4153 93.6241 78.4806 95.1546 79.9076 96.653L84.2524 92.515ZM76.5611 86.8782C73.5703 85.1189 70.1635 83.3295 66.3482 81.5086L63.7638 86.9234C67.4578 88.6865 70.707 90.3957 73.5189 92.0498L76.5611 86.8782ZM66.4505 81.5598C63.0824 79.7915 59.9325 78.0273 56.9995 76.2675L53.9125 81.4125C56.9529 83.2367 60.203 85.0565 63.6615 86.8722L66.4505 81.5598ZM57.0858 76.3213C54.326 74.5356 51.9202 72.647 49.8553 70.6615L45.6967 74.9865C48.0691 77.2677 50.7833 79.3897 53.8262 81.3587L57.0858 76.3213ZM49.8973 70.7027C47.9796 68.7849 46.4674 66.6987 45.3393 64.4424L39.9727 67.1256C41.4046 69.9893 43.3057 72.5964 45.6547 74.9453L49.8973 70.7027ZM45.3901 64.5492C44.3946 62.3449 43.864 59.7884 43.864 56.824H37.864C37.864 60.5156 38.5281 63.9324 39.9219 67.0188L45.3901 64.5492ZM43.864 56.824C43.864 53.0343 44.8567 49.7431 46.8065 46.8544L41.8335 43.4976C39.1753 47.4356 37.864 51.9097 37.864 56.824H43.864ZM46.8065 46.8544C48.7606 43.9595 51.6353 41.5554 55.5814 39.6984L53.0266 34.2695C48.2687 36.5085 44.4874 39.5658 41.8335 43.4976L46.8065 46.8544ZM55.5814 39.6984C59.439 37.8831 64.2273 36.912 70.048 36.912V30.912C63.5807 30.912 57.873 31.9889 53.0266 34.2695L55.5814 39.6984ZM70.048 36.912C74.1009 36.912 78.0717 37.5073 81.9699 38.7006L83.7261 32.9634C79.2616 31.5967 74.6991 30.912 70.048 30.912V36.912ZM81.9699 38.7006C86.0326 39.9443 89.4973 41.2947 92.3864 42.7393L95.0696 37.3727C91.8147 35.7452 88.026 34.2797 83.7262 32.9634L81.9699 38.7006ZM90.9533 38.9153L86.2173 50.4353L91.7667 52.7167L96.5027 41.1967L90.9533 38.9153ZM90.3892 48.9212C88.6744 48.0187 86.837 47.168 84.8799 46.3674L82.6081 51.9206C84.4057 52.656 86.067 53.4267 87.5948 54.2308L90.3892 48.9212ZM84.9258 46.3866C82.9078 45.5217 80.6919 44.867 78.2945 44.406L77.1615 50.298C79.2014 50.6903 80.9962 51.2303 82.5622 51.9014L84.9258 46.3866ZM78.4281 44.4348C76.0243 43.8579 73.3946 43.584 70.56 43.584V49.584C73.016 49.584 75.1651 49.8221 77.0279 50.2692L78.4281 44.4348ZM70.56 43.584C65.8994 43.584 61.7573 44.5168 58.2869 46.5582L61.3291 51.7298C63.6614 50.3578 66.6872 49.584 70.56 49.584V43.584ZM58.3445 46.5252C56.4903 47.5613 54.9776 48.9577 53.9447 50.7501C52.9142 52.5384 52.456 54.5561 52.456 56.696H58.456C58.456 55.4225 58.7231 54.475 59.1433 53.7459C59.5611 53.0209 60.2243 52.348 61.2715 51.7628L58.3445 46.5252ZM52.456 56.696C52.456 59.9071 53.4381 62.8072 55.4381 65.2517L60.0819 61.4523C59.0099 60.1421 58.456 58.6049 58.456 56.696H52.456ZM55.5354 65.3647C57.4558 67.4873 60.0676 69.386 63.2407 71.1086L66.1033 65.8354C63.303 64.3153 61.3068 62.8007 59.9846 61.3393L55.5354 65.3647ZM63.2407 71.1086C66.2454 72.7397 69.7165 74.5823 73.6523 76.6358L76.4277 71.3162C72.5129 69.2737 69.0719 67.447 66.1033 65.8354L63.2407 71.1086ZM73.6711 76.6455C76.935 78.3193 79.9799 80.0299 82.8075 81.7764L85.9605 76.6716C82.9854 74.8341 79.801 73.046 76.409 71.3065L73.6711 76.6455ZM82.8956 81.8287C85.7123 83.4383 88.1261 85.1856 90.1572 87.0604L94.2268 82.6516C91.8206 80.4304 89.0291 78.4231 85.8724 76.6193L82.8956 81.8287ZM90.1572 87.0604C92.1074 88.8606 93.6277 90.905 94.7395 93.2027L100.14 90.5893C98.6923 87.5963 96.7139 84.9474 94.2268 82.6516L90.1572 87.0604ZM94.7567 93.2376C95.7872 95.2986 96.36 97.8492 96.36 100.984H102.36C102.36 97.1215 101.653 93.6134 100.123 90.5544L94.7567 93.2376ZM96.36 100.984C96.36 104.998 95.2584 108.421 93.0989 111.372L97.9411 114.916C100.902 110.869 102.36 106.186 102.36 100.984H96.36ZM93.0708 111.412C90.96 114.396 87.8343 116.903 83.5266 118.861L86.0094 124.323C91.0884 122.014 95.1307 118.89 97.9692 114.876L93.0708 111.412ZM83.5682 118.842C79.3609 120.678 73.9954 121.664 67.36 121.664V127.664C74.5486 127.664 80.7884 126.602 85.9678 124.342L83.5682 118.842ZM67.36 121.664C65.7943 121.664 63.8873 121.476 61.6154 121.071L60.5606 126.977C63.0674 127.425 65.3417 127.664 67.36 127.664V121.664ZM61.6154 121.071C59.288 120.655 56.9149 120.156 54.4959 119.572L53.0881 125.404C55.6184 126.015 58.1093 126.54 60.5606 126.977L61.6154 121.071ZM54.6162 119.603C52.294 118.94 50.1527 118.239 48.1894 117.503L46.0826 123.121C48.2153 123.921 50.5113 124.671 52.9678 125.373L54.6162 119.603ZM48.2898 117.543C46.3559 116.737 44.9589 115.985 44.0157 115.311L40.5283 120.193C41.9744 121.226 43.8201 122.18 45.9822 123.081L48.2898 117.543ZM127.067 79.608L124.121 80.177L128.885 81.9943L127.067 79.608ZM124.891 68.344L122.987 66.0258L121.945 68.913L124.891 68.344ZM132.443 63.352L133.819 66.0179L133.85 66.0013L132.443 63.352ZM140.763 60.024L141.552 62.9183L140.763 60.024ZM160.859 62.072L159.082 64.489L159.115 64.5132L160.859 62.072ZM167.259 70.776L164.426 71.7641L164.456 71.844L167.259 70.776ZM169.307 123V126L172.307 123H169.307ZM154.971 123H151.971L154.971 126V123ZM152.667 74.36L150.171 76.0241H150.171L152.667 74.36ZM138.843 72.184L137.766 69.384L137.729 69.3986L138.843 72.184ZM127.067 123V126L130.067 123H127.067ZM112.859 123H109.859L112.859 126V123ZM112.859 34.04L112.563 31.0546L109.859 34.04H112.859ZM127.067 32.632H130.067L126.771 29.6466L127.067 32.632ZM130.013 79.039L127.837 67.775L121.945 68.913L124.121 80.177L130.013 79.039ZM126.795 70.6622C129.028 68.8285 131.369 67.2826 133.819 66.0179L131.067 60.6861C128.227 62.1521 125.533 63.9342 122.987 66.0258L126.795 70.6622ZM133.85 66.0013C136.396 64.6488 138.963 63.6244 141.552 62.9183L139.974 57.1297C136.931 57.9596 133.951 59.1538 131.036 60.7027L133.85 66.0013ZM141.552 62.9183C144.146 62.2108 146.568 61.872 148.827 61.872V55.872C145.966 55.872 143.012 56.3012 139.974 57.1297L141.552 62.9183ZM148.827 61.872C153.569 61.872 156.872 62.8643 159.082 64.489L162.636 59.655C159.043 57.0131 154.325 55.872 148.827 55.872V61.872ZM159.115 64.5132C161.567 66.2645 163.338 68.6435 164.426 71.7641L170.092 69.7879C168.62 65.5698 166.124 62.1462 162.603 59.6308L159.115 64.5132ZM164.456 71.844C165.668 75.0258 166.307 78.7494 166.307 83.064H172.307C172.307 78.1626 171.581 73.6942 170.062 69.708L164.456 71.844ZM166.307 83.064V123H172.307V83.064H166.307ZM169.307 120H154.971V126H169.307V120ZM157.971 123V83.96H151.971V123H157.971ZM157.971 83.96C157.971 79.5395 157.15 75.6762 155.163 72.6959L150.171 76.0241C151.256 77.6518 151.971 80.1885 151.971 83.96H157.971ZM155.163 72.6959C152.938 69.358 149.394 67.904 145.243 67.904V73.904C147.919 73.904 149.324 74.754 150.171 76.0241L155.163 72.6959ZM145.243 67.904C142.773 67.904 140.274 68.4194 137.766 69.384L139.92 74.984C141.849 74.242 143.617 73.904 145.243 73.904V67.904ZM137.729 69.3986C135.376 70.3398 133.128 71.5593 130.986 73.0493L134.412 77.9747C136.196 76.7341 138.044 75.7349 139.957 74.9694L137.729 69.3986ZM130.986 73.0493C128.99 74.4378 127.077 75.8286 125.249 77.2217L128.885 81.9943C130.641 80.6567 132.483 79.3168 134.412 77.9747L130.986 73.0493ZM127.067 120H112.859V126H127.067V120ZM115.859 123V34.04H109.859V123H115.859ZM113.155 37.0254L127.363 35.6174L126.771 29.6466L112.563 31.0546L113.155 37.0254ZM124.067 32.632V123H130.067V32.632H124.067ZM196.888 108.792L194.241 110.204L194.316 110.335L196.888 108.792ZM200.088 111.992L198.498 114.536L198.617 114.607L200.088 111.992ZM212.888 111.224L214.23 113.907L212.888 111.224ZM220.056 105.976L222.177 108.097L223.056 105.976H220.056ZM220.056 94.84H223.056L220.056 91.84V94.84ZM190.616 76.536L187.764 77.4661L191.798 79.2934L190.616 76.536ZM186.776 64.76L185.082 62.2841L183.924 65.6901L186.776 64.76ZM193.304 61.944L194.116 64.8319L194.199 64.8074L193.304 61.944ZM201.624 60.024L202.073 62.9901L202.161 62.9756L201.624 60.024ZM221.592 62.2L220.25 64.8833L220.298 64.9064L221.592 62.2ZM230.936 70.136L228.449 71.8144L228.478 71.8564L230.936 70.136ZM234.52 123V126L237.52 123H234.52ZM224.792 123L221.958 123.983L224.792 126V123ZM222.616 116.728L225.45 115.745L220.537 114.565L222.616 116.728ZM214.68 122.232L216.022 124.915L214.68 122.232ZM188.696 119.032L190.842 116.936L188.696 119.032ZM189.72 90.36L187.875 87.9945V87.9945L189.72 90.36ZM206.36 85.24V82.24L206.322 82.2402L206.36 85.24ZM219.928 85.24V88.24L222.928 85.24H219.928ZM219.928 84.856H222.928L222.927 84.7863L219.928 84.856ZM217.24 75.896L214.799 77.6397L214.829 77.6817L217.24 75.896ZM198.936 73.72L199.719 76.6161L199.77 76.6017L198.936 73.72ZM192.864 104.696C192.864 106.639 193.327 108.489 194.241 110.204L199.535 107.38C199.084 106.535 198.864 105.654 198.864 104.696H192.864ZM194.316 110.335C195.346 112.053 196.763 113.452 198.498 114.536L201.678 109.448C200.682 108.826 199.966 108.091 199.46 107.249L194.316 110.335ZM198.617 114.607C200.513 115.673 202.662 116.144 204.952 116.144V110.144C203.488 110.144 202.394 109.847 201.559 109.377L198.617 114.607ZM204.952 116.144C208.171 116.144 211.274 115.385 214.23 113.907L211.546 108.541C209.382 109.623 207.194 110.144 204.952 110.144V116.144ZM214.23 113.907C217.104 112.47 219.752 110.522 222.177 108.097L217.935 103.855C215.922 105.867 213.792 107.418 211.546 108.541L214.23 113.907ZM223.056 105.976V94.84H217.056V105.976H223.056ZM220.056 91.84H206.104V97.84H220.056V91.84ZM206.104 91.84C202.178 91.84 198.766 93.1121 196.294 95.9365L200.81 99.8875C201.922 98.6159 203.545 97.84 206.104 97.84V91.84ZM196.294 95.9365C194.075 98.4727 192.864 101.42 192.864 104.696H198.864C198.864 103.022 199.445 101.447 200.81 99.8875L196.294 95.9365ZM193.468 75.6059L189.628 63.8299L183.924 65.6901L187.764 77.4661L193.468 75.6059ZM188.47 67.2359C189.731 66.3731 191.573 65.5473 194.116 64.8319L192.492 59.056C189.574 59.8767 187.064 60.9282 185.082 62.2841L188.47 67.2359ZM194.199 64.8074C196.785 63.9994 199.409 63.3939 202.073 62.9901L201.175 57.0579C198.207 57.5075 195.285 58.1819 192.409 59.0806L194.199 64.8074ZM202.161 62.9756C204.901 62.4774 206.961 62.256 208.408 62.256V56.256C206.441 56.256 203.979 56.5466 201.087 57.0724L202.161 62.9756ZM208.408 62.256C212.857 62.256 216.785 63.1506 220.25 64.8833L222.934 59.5167C218.548 57.324 213.687 56.256 208.408 56.256V62.256ZM220.298 64.9064C223.77 66.5669 226.461 68.8691 228.449 71.8144L233.423 68.4576C230.803 64.5762 227.265 61.5878 222.886 59.4936L220.298 64.9064ZM228.478 71.8564C230.513 74.7635 231.52 77.9598 231.52 81.528H237.52C237.52 76.7335 236.137 72.3351 233.394 68.4156L228.478 71.8564ZM231.52 81.528V123H237.52V81.528H231.52ZM234.52 120H224.792V126H234.52V120ZM227.626 122.017L225.45 115.745L219.782 117.711L221.958 123.983L227.626 122.017ZM220.537 114.565C218.56 116.466 216.171 118.133 213.338 119.549L216.022 124.915C219.333 123.259 222.235 121.256 224.695 118.891L220.537 114.565ZM213.338 119.549C210.658 120.889 207.957 121.536 205.208 121.536V127.536C208.944 127.536 212.558 126.647 216.022 124.915L213.338 119.549ZM205.208 121.536C198.228 121.536 193.65 119.811 190.842 116.936L186.55 121.128C190.91 125.592 197.34 127.536 205.208 127.536V121.536ZM190.842 116.936C187.887 113.911 186.32 109.926 186.32 104.696H180.32C180.32 111.242 182.337 116.815 186.55 121.128L190.842 116.936ZM186.32 104.696C186.32 99.2329 188.143 95.3944 191.565 92.7255L187.875 87.9945C182.763 91.9816 180.32 97.7004 180.32 104.696H186.32ZM191.565 92.7255C195.193 89.8961 200.053 88.3191 206.397 88.2398L206.322 82.2402C199.014 82.3316 192.781 84.1679 187.875 87.9945L191.565 92.7255ZM206.36 88.24H219.928V82.24H206.36V88.24ZM222.928 85.24V84.856H216.928V85.24H222.928ZM222.927 84.7863C222.831 80.6713 221.817 77.0351 219.651 74.1103L214.829 77.6817C216.076 79.3649 216.854 81.7021 216.929 84.9257L222.927 84.7863ZM219.681 74.1523C217.22 70.7066 213.259 69.312 208.664 69.312V75.312C212.09 75.312 213.847 76.3068 214.799 77.6397L219.681 74.1523ZM208.664 69.312C205.128 69.312 201.604 69.8244 198.102 70.8383L199.77 76.6017C202.753 75.7383 205.715 75.312 208.664 75.312V69.312ZM198.153 70.8239C194.893 71.7051 191.981 72.687 189.434 73.7786L191.798 79.2934C194.029 78.337 196.664 77.4416 199.719 76.6161L198.153 70.8239ZM295.198 60.92L298.184 60.6356L295.198 57.92V60.92ZM295.966 68.984L298.324 70.8381L298.952 68.6996L295.966 68.984ZM262.558 111.48L260.2 109.626L262.558 114.48V111.48ZM295.326 111.48L298.308 111.149L295.326 108.48V111.48ZM296.606 123V126L299.588 122.669L296.606 123ZM246.43 123L243.511 123.693L246.43 126V123ZM244.638 115.448L242.257 113.623L241.719 116.141L244.638 115.448ZM277.406 72.696L279.787 74.521L277.406 69.696V72.696ZM249.63 72.696L246.72 73.4236L249.63 75.696V72.696ZM246.686 60.92V57.92L243.776 61.6476L246.686 60.92ZM292.212 61.2044L292.98 69.2684L298.952 68.6996L298.184 60.6356L292.212 61.2044ZM293.608 67.1299L260.2 109.626L264.916 113.334L298.324 70.8381L293.608 67.1299ZM262.558 114.48H295.326V108.48H262.558V114.48ZM292.344 111.811L293.624 123.331L299.588 122.669L298.308 111.149L292.344 111.811ZM296.606 120H246.43V126H296.606V120ZM249.349 122.307L247.557 114.755L241.719 116.141L243.511 123.693L249.349 122.307ZM247.019 117.273L279.787 74.521L275.025 70.871L242.257 113.623L247.019 117.273ZM277.406 69.696H249.63V75.696H277.406V69.696ZM252.54 71.9684L249.596 60.1924L243.776 61.6476L246.72 73.4236L252.54 71.9684ZM246.686 63.92H295.198V57.92H246.686V63.92ZM319.323 108.792L316.676 110.204L316.751 110.335L319.323 108.792ZM322.523 111.992L320.933 114.536L321.052 114.607L322.523 111.992ZM335.323 111.224L336.665 113.907L335.323 111.224ZM342.491 105.976L344.612 108.097L345.491 105.976H342.491ZM342.491 94.84H345.491L342.491 91.84V94.84ZM313.051 76.536L310.199 77.4661L314.233 79.2934L313.051 76.536ZM309.211 64.76L307.517 62.2841L306.359 65.6901L309.211 64.76ZM315.739 61.944L316.551 64.8319L316.634 64.8074L315.739 61.944ZM324.059 60.024L324.508 62.9901L324.596 62.9756L324.059 60.024ZM344.027 62.2L342.685 64.8833L342.733 64.9064L344.027 62.2ZM353.371 70.136L350.884 71.8144L350.913 71.8564L353.371 70.136ZM356.955 123V126L359.955 123H356.955ZM347.227 123L344.393 123.983L347.227 126V123ZM345.051 116.728L347.885 115.745L342.972 114.565L345.051 116.728ZM337.115 122.232L338.457 124.915L337.115 122.232ZM311.131 119.032L313.277 116.936L311.131 119.032ZM312.155 90.36L310.31 87.9945V87.9945L312.155 90.36ZM328.795 85.24V82.24L328.758 82.2402L328.795 85.24ZM342.363 85.24V88.24L345.363 85.24H342.363ZM342.363 84.856H345.363L345.362 84.7863L342.363 84.856ZM339.675 75.896L337.234 77.6397L337.264 77.6817L339.675 75.896ZM321.371 73.72L322.154 76.6161L322.205 76.6017L321.371 73.72ZM315.299 104.696C315.299 106.639 315.762 108.489 316.676 110.204L321.97 107.38C321.519 106.535 321.299 105.654 321.299 104.696H315.299ZM316.751 110.335C317.781 112.053 319.198 113.452 320.933 114.536L324.113 109.448C323.117 108.826 322.401 108.091 321.895 107.249L316.751 110.335ZM321.052 114.607C322.948 115.673 325.097 116.144 327.387 116.144V110.144C325.923 110.144 324.829 109.847 323.994 109.377L321.052 114.607ZM327.387 116.144C330.606 116.144 333.709 115.385 336.665 113.907L333.981 108.541C331.817 109.623 329.629 110.144 327.387 110.144V116.144ZM336.665 113.907C339.539 112.47 342.188 110.522 344.612 108.097L340.37 103.855C338.357 105.867 336.227 107.418 333.981 108.541L336.665 113.907ZM345.491 105.976V94.84H339.491V105.976H345.491ZM342.491 91.84H328.539V97.84H342.491V91.84ZM328.539 91.84C324.613 91.84 321.201 93.1121 318.729 95.9365L323.245 99.8875C324.357 98.6159 325.98 97.84 328.539 97.84V91.84ZM318.729 95.9365C316.51 98.4727 315.299 101.42 315.299 104.696H321.299C321.299 103.022 321.88 101.447 323.245 99.8875L318.729 95.9365ZM315.903 75.6059L312.063 63.8299L306.359 65.6901L310.199 77.4661L315.903 75.6059ZM310.905 67.2359C312.166 66.3731 314.008 65.5473 316.551 64.8319L314.927 59.056C312.009 59.8767 309.499 60.9282 307.517 62.2841L310.905 67.2359ZM316.634 64.8074C319.22 63.9994 321.844 63.3939 324.508 62.9901L323.61 57.0579C320.642 57.5075 317.72 58.1819 314.844 59.0806L316.634 64.8074ZM324.596 62.9756C327.336 62.4774 329.396 62.256 330.843 62.256V56.256C328.876 56.256 326.414 56.5466 323.522 57.0724L324.596 62.9756ZM330.843 62.256C335.292 62.256 339.22 63.1506 342.685 64.8833L345.369 59.5167C340.983 57.324 336.122 56.256 330.843 56.256V62.256ZM342.733 64.9064C346.204 66.5669 348.896 68.8691 350.884 71.8144L355.858 68.4576C353.238 64.5762 349.7 61.5878 345.321 59.4936L342.733 64.9064ZM350.913 71.8564C352.948 74.7635 353.955 77.9598 353.955 81.528H359.955C359.955 76.7335 358.572 72.3351 355.829 68.4156L350.913 71.8564ZM353.955 81.528V123H359.955V81.528H353.955ZM356.955 120H347.227V126H356.955V120ZM350.061 122.017L347.885 115.745L342.217 117.711L344.393 123.983L350.061 122.017ZM342.972 114.565C340.995 116.466 338.606 118.133 335.773 119.549L338.457 124.915C341.768 123.259 344.67 121.256 347.13 118.891L342.972 114.565ZM335.773 119.549C333.093 120.889 330.392 121.536 327.643 121.536V127.536C331.379 127.536 334.993 126.647 338.457 124.915L335.773 119.549ZM327.643 121.536C320.663 121.536 316.085 119.811 313.277 116.936L308.985 121.128C313.345 125.592 319.775 127.536 327.643 127.536V121.536ZM313.277 116.936C310.322 113.911 308.755 109.926 308.755 104.696H302.755C302.755 111.242 304.772 116.815 308.985 121.128L313.277 116.936ZM308.755 104.696C308.755 99.2329 310.578 95.3944 314 92.7255L310.31 87.9945C305.198 91.9816 302.755 97.7004 302.755 104.696H308.755ZM314 92.7255C317.628 89.8961 322.488 88.3191 328.832 88.2398L328.758 82.2402C321.449 82.3316 315.216 84.1679 310.31 87.9945L314 92.7255ZM328.795 88.24H342.363V82.24H328.795V88.24ZM345.363 85.24V84.856H339.363V85.24H345.363ZM345.362 84.7863C345.266 80.6713 344.252 77.0351 342.086 74.1103L337.264 77.6817C338.511 79.3649 339.289 81.7021 339.364 84.9257L345.362 84.7863ZM342.116 74.1523C339.655 70.7066 335.694 69.312 331.099 69.312V75.312C334.525 75.312 336.282 76.3068 337.234 77.6397L342.116 74.1523ZM331.099 69.312C327.563 69.312 324.039 69.8244 320.537 70.8383L322.205 76.6017C325.188 75.7383 328.15 75.312 331.099 75.312V69.312ZM320.588 70.8239C317.328 71.7051 314.416 72.687 311.869 73.7786L314.233 79.2934C316.464 78.337 319.099 77.4416 322.154 76.6161L320.588 70.8239ZM386.785 123V126L389.785 123H386.785ZM372.449 123H369.449L372.449 126V123ZM372.449 60.92V57.92L369.449 60.92H372.449ZM382.049 60.92L384.885 59.942L382.049 57.92V60.92ZM384.609 68.344L381.773 69.322L386.513 70.6622L384.609 68.344ZM392.033 63.352L393.445 65.9991L393.475 65.9824L392.033 63.352ZM399.969 60.024L399.157 57.136L399.133 57.143L399.969 60.024ZM418.785 61.816L417.104 64.3008L417.155 64.3347L418.785 61.816ZM425.057 69.752L422.248 70.8054L422.272 70.8662L425.057 69.752ZM427.105 123V126L430.105 123H427.105ZM412.641 123H409.641L412.641 126V123ZM411.745 77.048L408.842 77.8053L408.886 77.9576L411.745 77.048ZM409.057 72.568L407.016 74.7664L407.183 74.9106L409.057 72.568ZM398.049 72.184L396.853 69.4328L398.049 72.184ZM386.785 79.608L384.967 77.2217L383.785 79.608H386.785ZM426.465 79.608L423.519 80.177L428.283 81.9943L426.465 79.608ZM424.289 68.344L422.344 66.0603L421.343 68.913L424.289 68.344ZM431.713 63.352L433.089 66.0179L433.155 65.9824L431.713 63.352ZM439.649 60.024L440.485 62.905L439.649 60.024ZM458.465 61.816L456.784 64.3008L456.835 64.3347L458.465 61.816ZM464.737 69.752L461.928 70.8054L461.952 70.8662L464.737 69.752ZM466.785 123V126L469.785 123H466.785ZM452.321 123H449.321L452.321 126V123ZM451.425 77.048L448.522 77.8053L448.566 77.9576L451.425 77.048ZM448.737 72.568L446.696 74.7664L446.863 74.9106L448.737 72.568ZM431.969 75.512L430.256 73.0493L430.204 73.0858L431.969 75.512ZM386.785 120H372.449V126H386.785V120ZM375.449 123V60.92H369.449V123H375.449ZM372.449 63.92H382.049V57.92H372.449V63.92ZM379.213 61.898L381.773 69.322L387.445 67.366L384.885 59.942L379.213 61.898ZM386.513 70.6622C388.76 68.8169 391.07 67.2654 393.445 65.9991L390.621 60.7049C387.876 62.1693 385.237 63.9457 382.705 66.0258L386.513 70.6622ZM393.475 65.9824C395.947 64.6273 398.39 63.6064 400.805 62.905L399.133 57.143C396.258 57.9776 393.41 59.1754 390.59 60.7216L393.475 65.9824ZM400.781 62.912C403.317 62.1987 405.513 61.872 407.393 61.872V55.872C404.836 55.872 402.082 56.3133 399.157 57.136L400.781 62.912ZM407.393 61.872C411.687 61.872 414.842 62.7706 417.104 64.3008L420.466 59.3311C416.925 56.9361 412.486 55.872 407.393 55.872V61.872ZM417.155 64.3347C419.486 65.8427 421.181 67.959 422.248 70.8054L427.866 68.6986C426.373 64.7183 423.887 61.5439 420.415 59.2973L417.155 64.3347ZM422.272 70.8662C423.464 73.8478 424.105 77.4645 424.105 81.784H430.105C430.105 76.8875 429.38 72.4828 427.842 68.6378L422.272 70.8662ZM424.105 81.784V123H430.105V81.784H424.105ZM427.105 120H412.641V126H427.105V120ZM415.641 123V83.96H409.641V123H415.641ZM415.641 83.96C415.641 81.0305 415.323 78.3989 414.604 76.1384L408.886 77.9576C409.362 79.4518 409.641 81.4281 409.641 83.96H415.641ZM414.648 76.2907C414.012 73.8537 412.826 71.7409 410.931 70.2254L407.183 74.9106C407.848 75.4431 408.454 76.3169 408.842 77.8053L414.648 76.2907ZM411.098 70.3696C409.174 68.5832 406.636 67.904 403.937 67.904V73.904C405.676 73.904 406.55 74.3341 407.016 74.7664L411.098 70.3696ZM403.937 67.904C401.527 67.904 399.158 68.4303 396.853 69.4328L399.245 74.9352C400.865 74.231 402.422 73.904 403.937 73.904V67.904ZM396.853 69.4328C394.673 70.3804 392.564 71.6025 390.524 73.0858L394.053 77.9382C395.769 76.6908 397.499 75.6943 399.245 74.9352L396.853 69.4328ZM390.524 73.0858C388.63 74.4638 386.777 75.8425 384.967 77.2217L388.603 81.9943C390.377 80.6429 392.194 79.2908 394.053 77.9382L390.524 73.0858ZM383.785 79.608V123H389.785V79.608H383.785ZM429.411 79.039L427.235 67.775L421.343 68.913L423.519 80.177L429.411 79.039ZM426.234 70.6277C428.367 68.8113 430.651 67.2762 433.089 66.0179L430.337 60.6861C427.485 62.1584 424.819 63.9514 422.344 66.0603L426.234 70.6277ZM433.155 65.9824C435.627 64.6273 438.07 63.6064 440.485 62.905L438.813 57.143C435.938 57.9776 433.09 59.1754 430.271 60.7216L433.155 65.9824ZM440.485 62.905C442.91 62.201 445.101 61.872 447.073 61.872V55.872C444.437 55.872 441.678 56.311 438.813 57.143L440.485 62.905ZM447.073 61.872C451.367 61.872 454.522 62.7706 456.784 64.3008L460.146 59.3312C456.605 56.9361 452.166 55.872 447.073 55.872V61.872ZM456.835 64.3347C459.166 65.8427 460.861 67.959 461.928 70.8054L467.546 68.6986C466.053 64.7183 463.567 61.5439 460.095 59.2973L456.835 64.3347ZM461.952 70.8662C463.144 73.8478 463.785 77.4645 463.785 81.784H469.785C469.785 76.8875 469.06 72.4828 467.522 68.6378L461.952 70.8662ZM463.785 81.784V123H469.785V81.784H463.785ZM466.785 120H452.321V126H466.785V120ZM455.321 123V83.96H449.321V123H455.321ZM455.321 83.96C455.321 81.0305 455.003 78.3989 454.284 76.1384L448.566 77.9576C449.042 79.4518 449.321 81.4281 449.321 83.96H455.321ZM454.328 76.2907C453.692 73.8537 452.506 71.7409 450.611 70.2254L446.863 74.9106C447.528 75.4431 448.134 76.3169 448.522 77.8053L454.328 76.2907ZM450.778 70.3696C448.854 68.5832 446.316 67.904 443.617 67.904V73.904C445.356 73.904 446.23 74.3341 446.696 74.7664L450.778 70.3696ZM443.617 67.904C441.274 67.904 438.948 68.4382 436.661 69.4328L439.053 74.9352C440.691 74.2231 442.205 73.904 443.617 73.904V67.904ZM436.661 69.4328C434.497 70.3736 432.362 71.5839 430.256 73.0493L433.682 77.9747C435.501 76.7094 437.292 75.7011 439.053 74.9352L436.661 69.4328ZM430.204 73.0858C428.31 74.4638 426.457 75.8425 424.647 77.2217L428.283 81.9943C430.057 80.6429 431.874 79.2908 433.734 77.9382L430.204 73.0858ZM620.282 35.96L623.16 36.8065L620.282 32.96V35.96ZM594.682 123V126L597.56 123.846L594.682 123ZM582.01 123L579.122 123.811L582.01 126V123ZM563.322 56.44L566.21 55.629L560.429 55.6445L563.322 56.44ZM545.018 123V126L547.911 123.795L545.018 123ZM532.474 123L529.602 123.866L532.474 126V123ZM506.49 36.856L506.066 33.8861L503.618 37.7223L506.49 36.856ZM520.826 34.808L523.726 34.0397L520.402 31.8382L520.826 34.808ZM539.002 103.416L536.102 104.184L541.907 104.166L539.002 103.416ZM556.41 35.96V32.96L553.505 35.2104L556.41 35.96ZM570.746 35.96L573.647 35.1949L570.746 32.96V35.96ZM588.538 103.416L585.637 104.181L591.443 104.166L588.538 103.416ZM605.946 35.96V32.96L603.041 35.2104L605.946 35.96ZM617.404 35.1135L591.804 122.154L597.56 123.846L623.16 36.8065L617.404 35.1135ZM594.682 120H582.01V126H594.682V120ZM584.898 122.189L566.21 55.629L560.434 57.2509L579.122 123.811L584.898 122.189ZM560.429 55.6445L542.125 122.205L547.911 123.795L566.215 57.2355L560.429 55.6445ZM545.018 120H532.474V126H545.018V120ZM535.346 122.134L509.362 35.9896L503.618 37.7223L529.602 123.866L535.346 122.134ZM506.914 39.8258L521.25 37.7778L520.402 31.8382L506.066 33.8861L506.914 39.8258ZM517.926 35.5763L536.102 104.184L541.902 102.648L523.726 34.0397L517.926 35.5763ZM541.907 104.166L559.315 36.7096L553.505 35.2104L536.097 102.666L541.907 104.166ZM556.41 38.96H570.746V32.96H556.41V38.96ZM567.845 36.7251L585.637 104.181L591.439 102.651L573.647 35.1949L567.845 36.7251ZM591.443 104.166L608.851 36.7096L603.041 35.2104L585.633 102.666L591.443 104.166ZM605.946 38.96H620.282V32.96H605.946V38.96ZM658.321 124.664V127.664L658.36 127.664L658.321 124.664ZM641.297 120.568L642.785 117.963L641.297 120.568ZM630.289 109.176L627.624 110.554L627.634 110.573L630.289 109.176ZM630.417 74.744L633.052 76.1773L630.417 74.744ZM641.553 63.352L640.084 60.736L640.065 60.7473L641.553 63.352ZM675.473 63.352L673.964 65.945L673.985 65.9567L675.473 63.352ZM686.609 74.744L683.974 76.1773L686.609 74.744ZM686.481 109.048L683.854 107.599L683.835 107.634L686.481 109.048ZM675.345 120.568L676.798 123.193L676.833 123.173L675.345 120.568ZM673.553 102.264L670.84 100.983L670.812 101.046L673.553 102.264ZM667.793 74.232L666.073 76.6897L666.129 76.7281L667.793 74.232ZM643.345 81.528L640.632 80.247L640.604 80.3096L643.345 81.528ZM641.169 91.896L638.17 91.8293L638.169 91.896H641.169ZM643.217 102.392L645.958 101.174L643.217 102.392ZM649.233 109.688L647.55 112.172L647.607 112.209L649.233 109.688ZM658.321 121.664C652.171 121.664 647.03 120.389 642.785 117.963L639.809 123.173C645.121 126.208 651.33 127.664 658.321 127.664V121.664ZM642.785 117.963C638.502 115.516 635.237 112.137 632.944 107.779L627.634 110.573C630.461 115.943 634.535 120.159 639.809 123.173L642.785 117.963ZM632.954 107.798C630.648 103.339 629.449 98.1084 629.449 92.024H623.449C623.449 98.9102 624.81 105.114 627.624 110.554L632.954 107.798ZM629.449 92.024C629.449 85.768 630.69 80.5207 633.052 76.1773L627.782 73.3107C624.853 78.6953 623.449 84.968 623.449 92.024H629.449ZM633.052 76.1773C635.433 71.7996 638.75 68.4092 643.041 65.9567L640.065 60.7473C634.799 63.7561 630.691 67.9604 627.782 73.3107L633.052 76.1773ZM643.022 65.9679C647.369 63.5274 652.522 62.256 658.577 62.256V56.256C651.662 56.256 645.465 57.7153 640.084 60.736L643.022 65.9679ZM658.577 62.256C664.729 62.256 669.817 63.5318 673.964 65.945L676.982 60.759C671.743 57.7109 665.566 56.256 658.577 56.256V62.256ZM673.985 65.9567C678.276 68.4092 681.593 71.7996 683.974 76.1773L689.244 73.3107C686.335 67.9604 682.227 63.7561 676.961 60.7473L673.985 65.9567ZM683.974 76.1773C686.339 80.5261 687.577 85.7326 687.577 91.896H693.577C693.577 84.9181 692.17 78.6899 689.244 73.3107L683.974 76.1773ZM687.577 91.896C687.577 97.95 686.306 103.155 683.854 107.599L689.108 110.497C692.117 105.042 693.577 98.8127 693.577 91.896H687.577ZM683.835 107.634C681.45 112.096 678.135 115.518 673.857 117.963L676.833 123.173C682.112 120.156 686.221 115.899 689.127 110.462L683.835 107.634ZM673.892 117.943C669.626 120.305 664.458 121.584 658.282 121.664L658.36 127.664C665.326 127.573 671.506 126.122 676.798 123.193L673.892 117.943ZM658.449 115.248C662.555 115.248 666.25 114.213 669.385 112.018L665.945 107.102C663.96 108.491 661.511 109.248 658.449 109.248V115.248ZM669.385 112.018C672.426 109.889 674.725 107.013 676.294 103.482L670.812 101.046C669.65 103.659 668.024 105.647 665.945 107.102L669.385 112.018ZM676.266 103.545C677.929 100.023 678.729 96.121 678.729 91.896H672.729C672.729 95.351 672.078 98.3608 670.84 100.983L676.266 103.545ZM678.729 91.896C678.729 87.6206 677.984 83.6961 676.422 80.1816L670.94 82.6184C672.108 85.2479 672.729 88.3207 672.729 91.896H678.729ZM676.422 80.1816C674.848 76.6402 672.534 73.7868 669.457 71.7358L666.129 76.7281C668.172 78.0905 669.783 80.0158 670.94 82.6184L676.422 80.1816ZM669.513 71.7743C666.378 69.5792 662.683 68.544 658.577 68.544V74.544C661.639 74.544 664.088 75.3008 666.073 76.6897L669.513 71.7743ZM658.577 68.544C654.607 68.544 650.983 69.5964 647.806 71.7482L651.172 76.7158C653.286 75.2836 655.72 74.544 658.577 74.544V68.544ZM647.806 71.7482C644.688 73.8609 642.297 76.721 640.632 80.247L646.058 82.809C647.294 80.191 649 78.1871 651.172 76.7158L647.806 71.7482ZM640.604 80.3096C639.055 83.7927 638.263 87.6484 638.17 91.8293L644.168 91.9626C644.246 88.4636 644.904 85.4072 646.086 82.7464L640.604 80.3096ZM638.169 91.896C638.169 96.1714 638.914 100.096 640.476 103.61L645.958 101.174C644.79 98.5441 644.169 95.4713 644.169 91.896H638.169ZM640.476 103.61C642.056 107.167 644.416 110.049 647.55 112.172L650.916 107.204C648.759 105.743 647.108 103.761 645.958 101.174L640.476 103.61ZM647.607 112.209C650.79 114.263 654.44 115.248 658.449 115.248V109.248C655.461 109.248 652.967 108.527 650.859 107.167L647.607 112.209ZM717.03 123V126L720.03 123H717.03ZM702.694 123H699.694L702.694 126V123ZM702.694 60.92V57.92L699.694 60.92H702.694ZM710.374 60.92L713.097 59.6607L710.374 57.92V60.92ZM715.11 71.16L712.387 72.4193L717.053 73.4458L715.11 71.16ZM721.254 66.68L722.876 69.2035L722.939 69.1624L721.254 66.68ZM728.678 62.584L727.518 59.8174L727.485 59.8313L728.678 62.584ZM735.974 60.92L738.873 60.147L735.974 57.92V60.92ZM739.046 72.44V75.44L741.945 71.667L739.046 72.44ZM732.006 73.976L730.923 71.1783L730.892 71.1906L732.006 73.976ZM724.198 77.944L722.63 75.3862L722.593 75.4095L724.198 77.944ZM717.03 83.448L714.995 81.2436L714.03 83.448H717.03ZM717.03 120H702.694V126H717.03V120ZM705.694 123V60.92H699.694V123H705.694ZM702.694 63.92H710.374V57.92H702.694V63.92ZM707.651 62.1793L712.387 72.4193L717.833 69.9007L713.097 59.6607L707.651 62.1793ZM717.053 73.4458C718.635 72.1007 720.571 70.6856 722.876 69.2035L719.632 64.1565C717.159 65.7464 714.998 67.318 713.167 68.8742L717.053 73.4458ZM722.939 69.1624C725.178 67.6427 727.489 66.3689 729.871 65.3367L727.485 59.8313C724.747 61.0177 722.109 62.4747 719.57 64.1976L722.939 69.1624ZM729.838 65.3506C732.219 64.3522 734.252 63.92 735.974 63.92V57.92C733.259 57.92 730.428 58.5971 727.518 59.8174L729.838 65.3506ZM733.075 61.693L736.147 73.213L741.945 71.667L738.873 60.147L733.075 61.693ZM739.046 69.44C736.515 69.44 733.79 70.0684 730.923 71.1783L733.089 76.7737C735.513 75.8356 737.481 75.44 739.046 75.44V69.44ZM730.892 71.1906C728.156 72.2847 725.403 73.6871 722.63 75.3862L725.766 80.5018C728.284 78.9582 730.736 77.7153 733.12 76.7614L730.892 71.1906ZM722.593 75.4095C719.881 77.1274 717.347 79.0724 714.995 81.2436L719.065 85.6524C721.15 83.7276 723.396 82.0033 725.803 80.4785L722.593 75.4095ZM714.03 83.448V123H720.03V83.448H714.03ZM764.462 123V126L767.462 123H764.462ZM750.254 123H747.254L750.254 126V123ZM750.254 34.04L749.958 31.0546L747.254 34.04H750.254ZM764.462 32.632H767.462L764.166 29.6466L764.462 32.632ZM764.462 120H750.254V126H764.462V120ZM753.254 123V34.04H747.254V123H753.254ZM750.55 37.0254L764.758 35.6174L764.166 29.6466L749.958 31.0546L750.55 37.0254ZM761.462 32.632V123H767.462V32.632H761.462ZM822.711 111.864H819.711L820.136 113.403L822.711 111.864ZM822.711 34.04L822.447 31.0517L819.711 34.04H822.711ZM837.175 32.76H840.175L836.911 29.7717L837.175 32.76ZM837.175 123V126L840.175 123H837.175ZM829.367 123L826.792 124.539L829.367 126V123ZM826.295 103.544L829.033 102.319L824.142 101.455L826.295 103.544ZM830.647 113.272L833.006 115.125L833.385 112.047L830.647 113.272ZM824.119 119.416L822.416 116.946V116.946L824.119 119.416ZM816.439 123.256L815.518 120.401L815.406 120.439L816.439 123.256ZM792.375 120.568L790.846 123.149L790.866 123.161L792.375 120.568ZM781.751 109.176L779.068 110.518L779.077 110.536L781.751 109.176ZM781.751 74.744L779.096 73.3468L779.077 73.3836L781.751 74.744ZM792.631 63.352L791.122 60.759L792.631 63.352ZM816.695 60.664L815.72 63.5011L815.8 63.5274L816.695 60.664ZM824.503 64.504L822.8 66.9736L822.839 67.0001L824.503 64.504ZM830.775 70.648L833.532 71.8298L833.257 68.9635L830.775 70.648ZM826.551 80.504L824.286 82.4711L829.308 81.6858L826.551 80.504ZM818.231 73.592L816.855 76.2579L816.889 76.2753L818.231 73.592ZM800.311 74.232L798.591 71.7743L798.552 71.8022L800.311 74.232ZM794.679 81.528L797.436 82.7098L797.448 82.6818L794.679 81.528ZM794.679 102.392L797.448 101.238L794.679 102.392ZM800.311 109.688L798.552 112.118L798.647 112.184L800.311 109.688ZM818.103 110.072L816.661 107.442L816.624 107.462L818.103 110.072ZM825.711 111.864V34.04H819.711V111.864H825.711ZM822.975 37.0283L837.439 35.7483L836.911 29.7717L822.447 31.0517L822.975 37.0283ZM834.175 32.76V123H840.175V32.76H834.175ZM837.175 120H829.367V126H837.175V120ZM831.942 121.461L825.286 110.325L820.136 113.403L826.792 124.539L831.942 121.461ZM823.557 104.769L827.909 114.497L833.385 112.047L829.033 102.319L823.557 104.769ZM828.288 111.419C826.595 113.573 824.639 115.413 822.416 116.946L825.822 121.886C828.548 120.006 830.944 117.749 833.006 115.125L828.288 111.419ZM822.416 116.946C820.162 118.501 817.864 119.644 815.518 120.401L817.36 126.111C820.305 125.161 823.127 123.745 825.822 121.886L822.416 116.946ZM815.406 120.439C813.131 121.274 811.006 121.664 809.015 121.664V127.664C811.803 127.664 814.627 127.116 817.472 126.073L815.406 120.439ZM809.015 121.664C803.05 121.664 798.043 120.395 793.884 117.975L790.866 123.161C796.094 126.202 802.18 127.664 809.015 127.664V121.664ZM793.904 117.987C789.796 115.552 786.647 112.183 784.425 107.816L779.077 110.536C781.805 115.897 785.738 120.122 790.846 123.149L793.904 117.987ZM784.434 107.834C782.206 103.378 781.039 98.0517 781.039 91.768H775.039C775.039 98.7963 776.347 105.076 779.068 110.518L784.434 107.834ZM781.039 91.768C781.039 85.667 782.201 80.4746 784.425 76.1044L779.077 73.3836C776.351 78.7414 775.039 84.8984 775.039 91.768H781.039ZM784.406 76.1412C786.707 71.769 789.939 68.3889 794.14 65.945L791.122 60.759C785.936 63.7764 781.915 67.991 779.096 73.3468L784.406 76.1412ZM794.14 65.945C798.299 63.5251 803.306 62.256 809.271 62.256V56.256C802.436 56.256 796.35 57.7176 791.122 60.759L794.14 65.945ZM809.271 62.256C811.075 62.256 813.214 62.6395 815.72 63.5011L817.67 57.8269C814.715 56.8111 811.904 56.256 809.271 56.256V62.256ZM815.8 63.5274C818.229 64.2864 820.561 65.4294 822.8 66.9736L826.206 62.0344C823.496 60.1653 820.623 58.7483 817.59 57.8006L815.8 63.5274ZM822.839 67.0001C825.098 68.506 826.903 70.2847 828.293 72.3325L833.257 68.9635C831.404 66.2327 829.028 63.9154 826.167 62.0078L822.839 67.0001ZM828.018 69.4662L823.794 79.3222L829.308 81.6858L833.532 71.8298L828.018 69.4662ZM828.816 78.5369C825.839 75.1093 822.767 72.506 819.573 70.9087L816.889 76.2753C819.156 77.4087 821.631 79.4134 824.286 82.4711L828.816 78.5369ZM819.607 70.9261C816.499 69.3221 813.077 68.544 809.399 68.544V74.544C812.207 74.544 814.672 75.1313 816.855 76.2579L819.607 70.9261ZM809.399 68.544C805.362 68.544 801.714 69.5878 798.591 71.7743L802.031 76.6897C804.028 75.2922 806.439 74.544 809.399 74.544V68.544ZM798.552 71.8022C795.589 73.9471 793.383 76.8391 791.91 80.3742L797.448 82.6818C798.535 80.0729 800.083 78.1009 802.071 76.6618L798.552 71.8022ZM791.922 80.3462C790.455 83.7678 789.759 87.5944 789.759 91.768H795.759C795.759 88.2616 796.343 85.2615 797.436 82.7098L791.922 80.3462ZM789.759 91.768C789.759 96.0953 790.45 100.041 791.91 103.546L797.448 101.238C796.348 98.5985 795.759 95.462 795.759 91.768H789.759ZM791.91 103.546C793.383 107.081 795.589 109.973 798.552 112.118L802.071 107.258C800.083 105.819 798.535 103.847 797.448 101.238L791.91 103.546ZM798.647 112.184C801.753 114.255 805.333 115.248 809.271 115.248V109.248C806.383 109.248 803.989 108.535 801.975 107.192L798.647 112.184ZM809.271 115.248C813.048 115.248 816.514 114.42 819.582 112.682L816.624 107.462C814.572 108.625 812.15 109.248 809.271 109.248V115.248ZM819.546 112.702C822.525 111.068 825.489 108.681 828.448 105.633L824.142 101.455C821.469 104.209 818.971 106.174 816.661 107.442L819.546 112.702ZM930.894 95.096L931.241 98.0759L933.36 96.8048L930.894 95.096ZM925.39 95.736L922.985 97.5295L925.737 98.7159L925.39 95.736ZM902.862 65.528L905.267 63.7345L899.862 65.528H902.862ZM902.862 123V126L905.862 123H902.862ZM888.654 123H885.654L888.654 126V123ZM888.654 35.96V32.96L885.654 35.96H888.654ZM897.486 35.96L899.917 34.2022L897.486 32.96V35.96ZM927.566 77.56L925.135 79.3178L930.054 79.2364L927.566 77.56ZM955.598 35.96V32.96L953.11 34.2836L955.598 35.96ZM964.43 35.96H967.43L964.43 32.96V35.96ZM964.43 123V126L967.43 123H964.43ZM949.966 123H946.966L949.966 126V123ZM949.966 67.576H952.966L947.5 65.8672L949.966 67.576ZM930.547 92.1161L925.044 92.7561L925.737 98.7159L931.241 98.0759L930.547 92.1161ZM927.795 93.9425L905.267 63.7345L900.457 67.3215L922.985 97.5295L927.795 93.9425ZM899.862 65.528V123H905.862V65.528H899.862ZM902.862 120H888.654V126H902.862V120ZM891.654 123V35.96H885.654V123H891.654ZM888.654 38.96H897.486V32.96H888.654V38.96ZM895.055 37.7178L925.135 79.3178L929.997 75.8022L899.917 34.2022L895.055 37.7178ZM930.054 79.2364L958.086 37.6364L953.11 34.2836L925.078 75.8836L930.054 79.2364ZM955.598 38.96H964.43V32.96H955.598V38.96ZM961.43 35.96V123H967.43V35.96H961.43ZM964.43 120H949.966V126H964.43V120ZM952.966 123V67.576H946.966V123H952.966ZM947.5 65.8672L928.428 93.3872L933.36 96.8048L952.432 69.2848L947.5 65.8672ZM996.123 108.792L993.476 110.204L993.55 110.335L996.123 108.792ZM999.323 111.992L997.733 114.536L997.852 114.607L999.323 111.992ZM1012.12 111.224L1013.46 113.907L1012.12 111.224ZM1019.29 105.976L1021.41 108.097L1022.29 105.976H1019.29ZM1019.29 94.84H1022.29L1019.29 91.84V94.84ZM989.851 76.536L986.999 77.4661L991.033 79.2934L989.851 76.536ZM986.011 64.76L984.317 62.2841L983.159 65.6901L986.011 64.76ZM992.539 61.944L993.351 64.8319L993.434 64.8074L992.539 61.944ZM1000.86 60.024L1001.31 62.9901L1001.4 62.9756L1000.86 60.024ZM1020.83 62.2L1019.49 64.8833L1019.53 64.9064L1020.83 62.2ZM1030.17 70.136L1027.68 71.8144L1027.71 71.8564L1030.17 70.136ZM1033.76 123V126L1036.76 123H1033.76ZM1024.03 123L1021.19 123.983L1024.03 126V123ZM1021.85 116.728L1024.69 115.745L1019.77 114.565L1021.85 116.728ZM1013.91 122.232L1015.26 124.915L1013.91 122.232ZM987.931 119.032L990.077 116.936L987.931 119.032ZM988.955 90.36L987.11 87.9945V87.9945L988.955 90.36ZM1005.59 85.24V82.24L1005.56 82.2402L1005.59 85.24ZM1019.16 85.24V88.24L1022.16 85.24H1019.16ZM1019.16 84.856H1022.16L1022.16 84.7863L1019.16 84.856ZM1016.47 75.896L1014.03 77.6397L1014.06 77.6817L1016.47 75.896ZM998.171 73.72L998.954 76.6161L999.005 76.6017L998.171 73.72ZM992.099 104.696C992.099 106.639 992.562 108.489 993.476 110.204L998.77 107.38C998.319 106.535 998.099 105.654 998.099 104.696H992.099ZM993.55 110.335C994.581 112.053 995.998 113.452 997.733 114.536L1000.91 109.448C999.917 108.826 999.201 108.091 998.695 107.249L993.55 110.335ZM997.852 114.607C999.748 115.673 1001.9 116.144 1004.19 116.144V110.144C1002.72 110.144 1001.63 109.847 1000.79 109.377L997.852 114.607ZM1004.19 116.144C1007.41 116.144 1010.51 115.385 1013.46 113.907L1010.78 108.541C1008.62 109.623 1006.43 110.144 1004.19 110.144V116.144ZM1013.46 113.907C1016.34 112.47 1018.99 110.522 1021.41 108.097L1017.17 103.855C1015.16 105.867 1013.03 107.418 1010.78 108.541L1013.46 113.907ZM1022.29 105.976V94.84H1016.29V105.976H1022.29ZM1019.29 91.84H1005.34V97.84H1019.29V91.84ZM1005.34 91.84C1001.41 91.84 998.001 93.1121 995.529 95.9365L1000.04 99.8875C1001.16 98.6159 1002.78 97.84 1005.34 97.84V91.84ZM995.529 95.9365C993.31 98.4727 992.099 101.42 992.099 104.696H998.099C998.099 103.022 998.68 101.447 1000.04 99.8875L995.529 95.9365ZM992.703 75.6059L988.863 63.8299L983.159 65.6901L986.999 77.4661L992.703 75.6059ZM987.705 67.2359C988.966 66.3731 990.808 65.5473 993.351 64.8319L991.727 59.056C988.809 59.8767 986.299 60.9282 984.317 62.2841L987.705 67.2359ZM993.434 64.8074C996.019 63.9994 998.644 63.3939 1001.31 62.9901L1000.41 57.0579C997.442 57.5075 994.52 58.1819 991.644 59.0806L993.434 64.8074ZM1001.4 62.9756C1004.14 62.4774 1006.2 62.256 1007.64 62.256V56.256C1005.68 56.256 1003.21 56.5466 1000.32 57.0724L1001.4 62.9756ZM1007.64 62.256C1012.09 62.256 1016.02 63.1506 1019.49 64.8833L1022.17 59.5167C1017.78 57.324 1012.92 56.256 1007.64 56.256V62.256ZM1019.53 64.9064C1023 66.5669 1025.7 68.8691 1027.68 71.8144L1032.66 68.4576C1030.04 64.5762 1026.5 61.5878 1022.12 59.4936L1019.53 64.9064ZM1027.71 71.8564C1029.75 74.7635 1030.76 77.9598 1030.76 81.528H1036.76C1036.76 76.7335 1035.37 72.3351 1032.63 68.4156L1027.71 71.8564ZM1030.76 81.528V123H1036.76V81.528H1030.76ZM1033.76 120H1024.03V126H1033.76V120ZM1026.86 122.017L1024.69 115.745L1019.02 117.711L1021.19 123.983L1026.86 122.017ZM1019.77 114.565C1017.79 116.466 1015.41 118.133 1012.57 119.549L1015.26 124.915C1018.57 123.259 1021.47 121.256 1023.93 118.891L1019.77 114.565ZM1012.57 119.549C1009.89 120.889 1007.19 121.536 1004.44 121.536V127.536C1008.18 127.536 1011.79 126.647 1015.26 124.915L1012.57 119.549ZM1004.44 121.536C997.463 121.536 992.885 119.811 990.077 116.936L985.785 121.128C990.145 125.592 996.575 127.536 1004.44 127.536V121.536ZM990.077 116.936C987.122 113.911 985.555 109.926 985.555 104.696H979.555C979.555 111.242 981.572 116.815 985.785 121.128L990.077 116.936ZM985.555 104.696C985.555 99.2329 987.378 95.3944 990.8 92.7255L987.11 87.9945C981.998 91.9816 979.555 97.7004 979.555 104.696H985.555ZM990.8 92.7255C994.428 89.8961 999.288 88.3191 1005.63 88.2398L1005.56 82.2402C998.249 82.3316 992.016 84.1679 987.11 87.9945L990.8 92.7255ZM1005.59 88.24H1019.16V82.24H1005.59V88.24ZM1022.16 85.24V84.856H1016.16V85.24H1022.16ZM1022.16 84.7863C1022.07 80.6713 1021.05 77.0351 1018.89 74.1103L1014.06 77.6817C1015.31 79.3649 1016.09 81.7021 1016.16 84.9257L1022.16 84.7863ZM1018.92 74.1523C1016.45 70.7066 1012.49 69.312 1007.9 69.312V75.312C1011.33 75.312 1013.08 76.3068 1014.03 77.6397L1018.92 74.1523ZM1007.9 69.312C1004.36 69.312 1000.84 69.8244 997.337 70.8383L999.005 76.6017C1001.99 75.7383 1004.95 75.312 1007.9 75.312V69.312ZM997.388 70.8239C994.128 71.7051 991.216 72.687 988.669 73.7786L991.033 79.2934C993.264 78.337 995.899 77.4416 998.954 76.6161L997.388 70.8239ZM1064.22 149.624L1064.52 152.609L1067.22 149.624H1064.22ZM1050.02 151.032H1047.02L1050.31 154.017L1050.02 151.032ZM1050.02 60.92V57.92L1047.02 60.92H1050.02ZM1057.57 60.92L1059.96 59.1144L1057.57 57.92V60.92ZM1064.22 69.752H1067.22L1066.62 67.9464L1064.22 69.752ZM1059.11 80.376L1056.33 81.5273L1061.29 82.434L1059.11 80.376ZM1055.01 70.52L1052.62 68.7068L1052.24 71.6713L1055.01 70.52ZM1061.54 64.376L1063.18 66.8854L1063.24 66.8456L1061.54 64.376ZM1069.09 60.536L1068.17 57.6809L1068.14 57.6899L1069.09 60.536ZM1093.03 63.352L1091.5 65.9329L1091.55 65.9655L1093.03 63.352ZM1103.78 74.744L1101.09 76.0856L1101.12 76.1412L1103.78 74.744ZM1103.78 109.176L1106.43 110.573L1106.44 110.554L1103.78 109.176ZM1092.9 120.568L1091.39 117.975L1091.37 117.987L1092.9 120.568ZM1068.83 123.256L1067.86 126.093L1067.88 126.102L1068.83 123.256ZM1060.9 119.288L1059.19 121.758L1059.23 121.784L1060.9 119.288ZM1054.75 113.272L1051.99 112.103L1052.3 114.998L1054.75 113.272ZM1058.98 103.288L1061.27 101.35L1056.21 102.119L1058.98 103.288ZM1067.17 110.328L1065.79 112.994L1065.9 113.044L1067.17 110.328ZM1085.22 109.688L1086.92 112.158L1086.98 112.118L1085.22 109.688ZM1090.85 102.392L1088.08 101.238L1090.85 102.392ZM1090.85 81.4L1088.05 82.4873L1088.08 82.5538L1090.85 81.4ZM1085.34 74.232L1083.59 76.6618L1083.64 76.7016L1085.34 74.232ZM1067.17 73.72L1065.73 71.0896L1065.69 71.1099L1067.17 73.72ZM1063.93 146.639L1049.72 148.047L1050.31 154.017L1064.52 152.609L1063.93 146.639ZM1053.02 151.032V60.92H1047.02V151.032H1053.02ZM1050.02 63.92H1057.57V57.92H1050.02V63.92ZM1055.17 62.7255L1061.83 71.5575L1066.62 67.9464L1059.96 59.1144L1055.17 62.7255ZM1061.22 69.752V149.624H1067.22V69.752H1061.22ZM1061.88 79.2247L1057.78 69.3687L1052.24 71.6713L1056.33 81.5273L1061.88 79.2247ZM1057.4 72.3332C1059.08 70.1177 1061.01 68.3097 1063.18 66.8854L1059.89 61.8666C1057.12 63.685 1054.69 65.973 1052.62 68.7068L1057.4 72.3332ZM1063.24 66.8456C1065.51 65.2813 1067.77 64.1365 1070.04 63.382L1068.14 57.6899C1065.28 58.6421 1062.51 60.0574 1059.83 61.9064L1063.24 66.8456ZM1070.01 63.3911C1072.42 62.6146 1074.58 62.256 1076.51 62.256V56.256C1073.84 56.256 1071.05 56.7507 1068.17 57.6809L1070.01 63.3911ZM1076.51 62.256C1082.48 62.256 1087.43 63.5257 1091.5 65.9329L1094.55 60.7711C1089.4 57.717 1083.35 56.256 1076.51 56.256V62.256ZM1091.55 65.9655C1095.71 68.3087 1098.88 71.656 1101.09 76.0856L1106.46 73.4024C1103.73 67.9333 1099.73 63.686 1094.5 60.7385L1091.55 65.9655ZM1101.12 76.1412C1103.41 80.4926 1104.62 85.7531 1104.62 92.024H1110.62C1110.62 84.9829 1109.26 78.7234 1106.43 73.3468L1101.12 76.1412ZM1104.62 92.024C1104.62 98.1084 1103.42 103.339 1101.11 107.798L1106.44 110.554C1109.26 105.114 1110.62 98.9102 1110.62 92.024H1104.62ZM1101.12 107.779C1098.82 112.151 1095.59 115.531 1091.39 117.975L1094.41 123.161C1099.59 120.144 1103.61 115.929 1106.43 110.573L1101.12 107.779ZM1091.37 117.987C1087.32 120.387 1082.28 121.664 1076.13 121.664V127.664C1083.12 127.664 1089.26 126.21 1094.43 123.149L1091.37 117.987ZM1076.13 121.664C1074.51 121.664 1072.42 121.288 1069.78 120.41L1067.88 126.102C1070.88 127.101 1073.65 127.664 1076.13 127.664V121.664ZM1069.81 120.419C1067.34 119.569 1064.92 118.365 1062.56 116.792L1059.23 121.784C1061.99 123.624 1064.87 125.065 1067.86 126.093L1069.81 120.419ZM1062.6 116.818C1060.4 115.3 1058.61 113.54 1057.21 111.546L1052.3 114.998C1054.14 117.612 1056.45 119.863 1059.19 121.758L1062.6 116.818ZM1057.52 114.441L1061.74 104.457L1056.21 102.119L1051.99 112.103L1057.52 114.441ZM1056.69 105.226C1059.65 108.727 1062.68 111.385 1065.79 112.994L1068.54 107.662C1066.37 106.541 1063.94 104.505 1061.27 101.35L1056.69 105.226ZM1065.9 113.044C1069.05 114.525 1072.48 115.248 1076.13 115.248V109.248C1073.29 109.248 1070.75 108.691 1068.44 107.612L1065.9 113.044ZM1076.13 115.248C1080.2 115.248 1083.85 114.272 1086.92 112.158L1083.51 107.218C1081.63 108.518 1079.22 109.248 1076.13 109.248V115.248ZM1086.98 112.118C1089.94 109.973 1092.15 107.081 1093.62 103.546L1088.08 101.238C1086.99 103.847 1085.44 105.819 1083.46 107.258L1086.98 112.118ZM1093.62 103.546C1095.07 100.064 1095.77 96.2521 1095.77 92.152H1089.77C1089.77 95.5612 1089.19 98.5758 1088.08 101.238L1093.62 103.546ZM1095.77 92.152C1095.77 87.7487 1095.08 83.7576 1093.62 80.2462L1088.08 82.5538C1089.18 85.1864 1089.77 88.3633 1089.77 92.152H1095.77ZM1093.65 80.3127C1092.25 76.7373 1090.06 73.8428 1087.05 71.7624L1083.64 76.7016C1085.57 78.0345 1087.05 79.9187 1088.05 82.4873L1093.65 80.3127ZM1087.1 71.8022C1084.03 69.5785 1080.36 68.544 1076.26 68.544V74.544C1079.32 74.544 1081.71 75.3015 1083.59 76.6618L1087.1 71.8022ZM1076.26 68.544C1072.41 68.544 1068.87 69.3661 1065.73 71.0896L1068.61 76.3504C1070.76 75.1726 1073.28 74.544 1076.26 74.544V68.544ZM1065.69 71.1099C1062.79 72.7539 1059.87 75.1923 1056.92 78.318L1061.29 82.434C1063.97 79.5863 1066.43 77.5874 1068.65 76.3301L1065.69 71.1099Z" fill="white"/>
</g>
</svg>
