    <svg
      width="1068"
      height="120"
      viewBox="0 0 1068 120"
      fill="none"
      xmlns="http://www.w3.org/2000/svg"
      class="absolute inset-4 w-5/6"
      id="heading"
    >
      <g filter="url(#filter0_i_71_59)">
        <path
          d="M2.272 85.752L5.6 74.232C7.30667 75 9.35467 75.8533 11.744 76.792C14.1333 77.6453 16.6507 78.4133 19.296 79.096C22.0267 79.6933 24.672 79.992 27.232 79.992C31.072 79.992 34.272 79.5653 36.832 78.712C39.392 77.8587 41.312 76.6213 42.592 75C43.9573 73.2933 44.64 71.288 44.64 68.984C44.64 66.5093 43.7867 64.376 42.08 62.584C40.3733 60.792 38.0267 59.0853 35.04 57.464C32.1387 55.7573 28.8107 54.008 25.056 52.216C21.6427 50.424 18.4427 48.632 15.456 46.84C12.5547 44.9627 9.99467 42.9573 7.776 40.824C5.64267 38.6907 3.936 36.344 2.656 33.784C1.46133 31.1387 0.864 28.152 0.864 24.824C0.864 20.472 2.016 16.5893 4.32 13.176C6.624 9.76266 9.952 7.032 14.304 4.98399C18.656 2.93599 23.904 1.91199 30.048 1.91199C34.4 1.91199 38.6667 2.55199 42.848 3.83199C47.0293 5.112 50.656 6.52 53.728 8.056L48.992 19.576C47.3707 18.7227 45.6213 17.912 43.744 17.144C41.952 16.376 39.9467 15.7787 37.728 15.352C35.5947 14.84 33.2053 14.584 30.56 14.584C26.2933 14.584 22.7093 15.4373 19.808 17.144C16.9067 18.7653 15.456 21.2827 15.456 24.696C15.456 27.256 16.224 29.4747 17.76 31.352C19.3813 33.144 21.6853 34.8507 24.672 36.472C27.6587 38.0933 31.1147 39.928 35.04 41.976C38.368 43.6827 41.4827 45.432 44.384 47.224C47.3707 48.9307 49.9733 50.808 52.192 52.856C54.4107 54.904 56.16 57.2507 57.44 59.896C58.72 62.456 59.36 65.4853 59.36 68.984C59.36 73.592 58.08 77.6453 55.52 81.144C53.0453 84.6427 49.4613 87.4587 44.768 89.592C40.0747 91.64 34.272 92.664 27.36 92.664C25.568 92.664 23.4773 92.4507 21.088 92.024C18.6987 91.5973 16.2667 91.0853 13.792 90.488C11.4027 89.8053 9.184 89.08 7.136 88.312C5.088 87.4587 3.46667 86.6053 2.272 85.752ZM87.067 47.608L84.891 36.344C87.2803 34.3813 89.7977 32.7173 92.443 31.352C95.1737 29.9013 97.947 28.792 100.763 28.024C103.579 27.256 106.267 26.872 108.827 26.872C113.947 26.872 117.958 27.9387 120.859 30.072C123.846 32.2053 125.979 35.1067 127.259 38.776C128.624 42.36 129.307 46.456 129.307 51.064V91H114.971V51.96C114.971 47.864 114.203 44.664 112.667 42.36C111.131 40.056 108.656 38.904 105.243 38.904C103.195 38.904 101.062 39.3307 98.843 40.184C96.7097 41.0373 94.6617 42.1467 92.699 43.512C90.7363 44.8773 88.859 46.2427 87.067 47.608ZM87.067 91H72.859V2.03999L87.067 0.631996V91ZM155.864 72.696C155.864 74.1467 156.205 75.512 156.888 76.792C157.656 78.072 158.723 79.1387 160.088 79.992C161.453 80.76 163.075 81.144 164.952 81.144C167.683 81.144 170.328 80.504 172.888 79.224C175.448 77.944 177.837 76.1947 180.056 73.976V62.84H166.104C162.861 62.84 160.344 63.864 158.552 65.912C156.76 67.96 155.864 70.2213 155.864 72.696ZM150.616 44.536L146.776 32.76C148.397 31.6507 150.573 30.712 153.304 29.944C156.035 29.0907 158.808 28.4507 161.624 28.024C164.44 27.512 166.701 27.256 168.408 27.256C173.272 27.256 177.667 28.2373 181.592 30.2C185.517 32.0773 188.632 34.7227 190.936 38.136C193.325 41.5493 194.52 45.3467 194.52 49.528V91H184.792L182.616 84.728C180.397 86.8613 177.752 88.696 174.68 90.232C171.608 91.768 168.451 92.536 165.208 92.536C157.784 92.536 152.28 90.7013 148.696 87.032C145.112 83.3627 143.32 78.584 143.32 72.696C143.32 66.4667 145.453 61.688 149.72 58.36C153.987 55.032 159.533 53.3253 166.36 53.24H179.928V52.856C179.843 49.1867 178.947 46.2 177.24 43.896C175.533 41.5067 172.675 40.312 168.664 40.312C165.421 40.312 162.179 40.7813 158.936 41.72C155.779 42.5733 153.005 43.512 150.616 44.536ZM255.198 28.92L255.966 36.984L222.558 79.48H255.326L256.606 91H206.43L204.638 83.448L237.406 40.696H209.63L206.686 28.92H255.198ZM278.299 72.696C278.299 74.1467 278.64 75.512 279.323 76.792C280.091 78.072 281.158 79.1387 282.523 79.992C283.888 80.76 285.51 81.144 287.387 81.144C290.118 81.144 292.763 80.504 295.323 79.224C297.883 77.944 300.272 76.1947 302.491 73.976V62.84H288.539C285.296 62.84 282.779 63.864 280.987 65.912C279.195 67.96 278.299 70.2213 278.299 72.696ZM273.051 44.536L269.211 32.76C270.832 31.6507 273.008 30.712 275.739 29.944C278.47 29.0907 281.243 28.4507 284.059 28.024C286.875 27.512 289.136 27.256 290.843 27.256C295.707 27.256 300.102 28.2373 304.027 30.2C307.952 32.0773 311.067 34.7227 313.371 38.136C315.76 41.5493 316.955 45.3467 316.955 49.528V91H307.227L305.051 84.728C302.832 86.8613 300.187 88.696 297.115 90.232C294.043 91.768 290.886 92.536 287.643 92.536C280.219 92.536 274.715 90.7013 271.131 87.032C267.547 83.3627 265.755 78.584 265.755 72.696C265.755 66.4667 267.888 61.688 272.155 58.36C276.422 55.032 281.968 53.3253 288.795 53.24H302.363V52.856C302.278 49.1867 301.382 46.2 299.675 43.896C297.968 41.5067 295.11 40.312 291.099 40.312C287.856 40.312 284.614 40.7813 281.371 41.72C278.214 42.5733 275.44 43.512 273.051 44.536ZM346.785 91H332.449V28.92H342.049L344.609 36.344C346.998 34.3813 349.473 32.7173 352.033 31.352C354.678 29.9013 357.324 28.792 359.969 28.024C362.7 27.256 365.174 26.872 367.393 26.872C372.086 26.872 375.884 27.8533 378.785 29.816C381.686 31.6933 383.777 34.3387 385.057 37.752C386.422 41.1653 387.105 45.176 387.105 49.784V91H372.641V51.96C372.641 49.2293 372.342 46.9253 371.745 45.048C371.233 43.0853 370.337 41.592 369.057 40.568C367.862 39.4587 366.156 38.904 363.937 38.904C361.974 38.904 360.012 39.3307 358.049 40.184C356.086 41.0373 354.166 42.1467 352.289 43.512C350.412 44.8773 348.577 46.2427 346.785 47.608V91ZM386.465 47.608L384.289 36.344C386.593 34.3813 389.068 32.7173 391.713 31.352C394.358 29.9013 397.004 28.792 399.649 28.024C402.294 27.256 404.769 26.872 407.073 26.872C411.766 26.872 415.564 27.8533 418.465 29.816C421.366 31.6933 423.457 34.3387 424.737 37.752C426.102 41.1653 426.785 45.176 426.785 49.784V91H412.321V51.96C412.321 49.2293 412.022 46.9253 411.425 45.048C410.913 43.0853 410.017 41.592 408.737 40.568C407.542 39.4587 405.836 38.904 403.617 38.904C401.74 38.904 399.82 39.3307 397.857 40.184C395.894 41.0373 393.932 42.1467 391.969 43.512C390.092 44.8773 388.257 46.2427 386.465 47.608ZM580.282 3.96L554.682 91H542.01L523.322 24.44L505.018 91H492.474L466.49 4.856L480.826 2.808L499.002 71.416L516.41 3.96H530.746L548.538 71.416L565.946 3.96H580.282ZM618.321 92.664C611.75 92.664 606.076 91.2987 601.297 88.568C596.518 85.8373 592.849 82.04 590.289 77.176C587.729 72.2267 586.449 66.5093 586.449 60.024C586.449 53.368 587.772 47.608 590.417 42.744C593.062 37.88 596.774 34.0827 601.553 31.352C606.417 28.6213 612.092 27.256 618.577 27.256C625.148 27.256 630.78 28.6213 635.473 31.352C640.252 34.0827 643.964 37.88 646.609 42.744C649.254 47.608 650.577 53.3253 650.577 59.896C650.577 66.3813 649.212 72.0987 646.481 77.048C643.836 81.9973 640.124 85.8373 635.345 88.568C630.566 91.2133 624.892 92.5787 618.321 92.664ZM618.449 80.248C622.033 80.248 625.105 79.352 627.665 77.56C630.225 75.768 632.188 73.336 633.553 70.264C635.004 67.192 635.729 63.736 635.729 59.896C635.729 55.9707 635.046 52.472 633.681 49.4C632.316 46.328 630.353 43.9387 627.793 42.232C625.233 40.44 622.161 39.544 618.577 39.544C615.164 39.544 612.134 40.44 609.489 42.232C606.844 44.024 604.796 46.456 603.345 49.528C601.98 52.6 601.254 56.056 601.169 59.896C601.169 63.8213 601.852 67.32 603.217 70.392C604.582 73.464 606.588 75.896 609.233 77.688C611.878 79.3947 614.95 80.248 618.449 80.248ZM677.03 91H662.694V28.92H670.374L675.11 39.16C676.817 37.7093 678.865 36.216 681.254 34.68C683.643 33.0587 686.118 31.6933 688.678 30.584C691.323 29.4747 693.755 28.92 695.974 28.92L699.046 40.44C696.998 40.44 694.651 40.952 692.006 41.976C689.446 43 686.843 44.3227 684.198 45.944C681.638 47.5653 679.249 49.4 677.03 51.448V91ZM724.462 91H710.254V2.03999L724.462 0.631996V91ZM782.711 79.864V2.03999L797.175 0.759995V91H789.367L782.711 79.864ZM786.295 71.544L790.647 81.272C788.77 83.6613 786.594 85.7093 784.119 87.416C781.644 89.1227 779.084 90.4027 776.439 91.256C773.879 92.1947 771.404 92.664 769.015 92.664C762.615 92.664 757.068 91.2987 752.375 88.568C747.767 85.8373 744.226 82.04 741.751 77.176C739.276 72.2267 738.039 66.424 738.039 59.768C738.039 53.2827 739.276 47.608 741.751 42.744C744.311 37.88 747.938 34.0827 752.631 31.352C757.324 28.6213 762.871 27.256 769.271 27.256C771.49 27.256 773.964 27.7253 776.695 28.664C779.426 29.5173 782.028 30.7973 784.503 32.504C787.063 34.2107 789.154 36.2587 790.775 38.648L786.551 48.504C783.735 45.2613 780.962 42.9573 778.231 41.592C775.586 40.2267 772.642 39.544 769.399 39.544C765.9 39.544 762.871 40.44 760.311 42.232C757.836 44.024 755.959 46.456 754.679 49.528C753.399 52.5147 752.759 55.928 752.759 59.768C752.759 63.7787 753.399 67.32 754.679 70.392C755.959 73.464 757.836 75.896 760.311 77.688C762.871 79.3947 765.858 80.248 769.271 80.248C772.599 80.248 775.543 79.5227 778.103 78.072C780.748 76.6213 783.479 74.4453 786.295 71.544ZM890.894 63.096L885.39 63.736L862.862 33.528V91H848.654V3.96H857.486L887.566 45.56L915.598 3.96H924.43V91H909.966V35.576L890.894 63.096ZM955.099 72.696C955.099 74.1467 955.44 75.512 956.123 76.792C956.891 78.072 957.958 79.1387 959.323 79.992C960.688 80.76 962.31 81.144 964.187 81.144C966.918 81.144 969.563 80.504 972.123 79.224C974.683 77.944 977.072 76.1947 979.291 73.976V62.84H965.339C962.096 62.84 959.579 63.864 957.787 65.912C955.995 67.96 955.099 70.2213 955.099 72.696ZM949.851 44.536L946.011 32.76C947.632 31.6507 949.808 30.712 952.539 29.944C955.27 29.0907 958.043 28.4507 960.859 28.024C963.675 27.512 965.936 27.256 967.643 27.256C972.507 27.256 976.902 28.2373 980.827 30.2C984.752 32.0773 987.867 34.7227 990.171 38.136C992.56 41.5493 993.755 45.3467 993.755 49.528V91H984.027L981.851 84.728C979.632 86.8613 976.987 88.696 973.915 90.232C970.843 91.768 967.686 92.536 964.443 92.536C957.019 92.536 951.515 90.7013 947.931 87.032C944.347 83.3627 942.555 78.584 942.555 72.696C942.555 66.4667 944.688 61.688 948.955 58.36C953.222 55.032 958.768 53.3253 965.595 53.24H979.163V52.856C979.078 49.1867 978.182 46.2 976.475 43.896C974.768 41.5067 971.91 40.312 967.899 40.312C964.656 40.312 961.414 40.7813 958.171 41.72C955.014 42.5733 952.24 43.512 949.851 44.536ZM1024.23 117.624L1010.02 119.032V28.92H1017.57L1024.23 37.752V117.624ZM1019.11 48.376L1015.01 38.52C1016.89 36.0453 1019.06 33.9973 1021.54 32.376C1024.01 30.6693 1026.53 29.3893 1029.09 28.536C1031.73 27.6827 1034.21 27.256 1036.51 27.256C1042.91 27.256 1048.42 28.6213 1053.03 31.352C1057.72 33.9973 1061.3 37.7947 1063.78 42.744C1066.34 47.608 1067.62 53.368 1067.62 60.024C1067.62 66.5093 1066.34 72.2267 1063.78 77.176C1061.22 82.04 1057.59 85.8373 1052.9 88.568C1048.29 91.2987 1042.7 92.664 1036.13 92.664C1034.08 92.664 1031.65 92.1947 1028.83 91.256C1026.1 90.3173 1023.46 88.9947 1020.9 87.288C1018.42 85.5813 1016.37 83.576 1014.75 81.272L1018.98 71.288C1021.79 74.616 1024.52 76.9627 1027.17 78.328C1029.9 79.608 1032.89 80.248 1036.13 80.248C1039.71 80.248 1042.74 79.3947 1045.22 77.688C1047.69 75.896 1049.57 73.464 1050.85 70.392C1052.13 67.32 1052.77 63.9067 1052.77 60.152C1052.77 56.056 1052.13 52.472 1050.85 49.4C1049.65 46.328 1047.82 43.9387 1045.35 42.232C1042.87 40.44 1039.84 39.544 1036.26 39.544C1032.84 39.544 1029.81 40.2693 1027.17 41.72C1024.61 43.1707 1021.92 45.3893 1019.11 48.376Z"
          fill="#2BC1E2"
        />
      </g>
      <defs>
        <filter
          id="filter0_i_71_59"
          x="0.864014"
          y="0.632019"
          width="1066.75"
          height="122.4"
          filterUnits="userSpaceOnUse"
          color-interpolation-filters="sRGB"
        >
          <feFlood flood-opacity="0" result="BackgroundImageFix" />
          <feBlend
            mode="normal"
            in="SourceGraphic"
            in2="BackgroundImageFix"
            result="shape"
          />
          <feColorMatrix
            in="SourceAlpha"
            type="matrix"
            values="0 0 0 0 0 0 0 0 0 0 0 0 0 0 0 0 0 0 127 0"
            result="hardAlpha"
          />
          <feOffset dy="4" />
          <feGaussianBlur stdDeviation="5" />
          <feComposite in2="hardAlpha" operator="arithmetic" k2="-1" k3="1" />
          <feColorMatrix
            type="matrix"
            values="0 0 0 0 0 0 0 0 0 0 0 0 0 0 0 0 0 0 0.25 0"
          />
          <feBlend
            mode="normal"
            in2="shape"
            result="effect1_innerShadow_71_59"
          />
        </filter>
      </defs>
    </svg>